<svg width="58" height="58" viewBox="0 0 58 58" fill="none" xmlns="http://www.w3.org/2000/svg">
<rect width="57.0769" height="57.0769" rx="28.5385" fill="#E1F7FD"/>
<path fill-rule="evenodd" clip-rule="evenodd" d="M17.9652 28.0862C17.9652 29.0678 18.7636 29.8668 19.7458 29.8668C20.7274 29.8668 21.5264 29.0684 21.5264 28.0862C21.5264 27.7449 21.4296 27.4261 21.2623 27.1548L24.5266 24.1968C24.8257 24.4243 25.1981 24.5599 25.6023 24.5599C26.1306 24.5599 26.6058 24.328 26.9323 23.9616L29.7903 25.6794C29.7181 25.8724 29.6787 26.0813 29.6787 26.2995C29.6787 27.2812 30.4771 28.0802 31.4593 28.0802C32.441 28.0802 33.2399 27.2817 33.2399 26.2995C33.2399 25.9468 33.1366 25.6181 32.9594 25.3414L36.2658 22.2368C36.5606 22.4528 36.9237 22.5808 37.3164 22.5808C38.298 22.5808 39.097 21.7823 39.097 20.8002C39.097 19.8185 38.298 19.0195 37.3164 19.0195C36.3347 19.0195 35.5357 19.818 35.5357 20.8002C35.5357 21.1529 35.6391 21.4816 35.8163 21.7583L32.5099 24.8629C32.2151 24.6469 31.852 24.5189 31.4593 24.5189C30.931 24.5189 30.4558 24.7508 30.1293 25.1172L27.2713 23.3995C27.3435 23.2064 27.3829 22.9975 27.3829 22.7793C27.3829 21.7977 26.5839 20.9987 25.6023 20.9987C24.6206 20.9987 23.8217 21.7971 23.8217 22.7793C23.8217 23.1205 23.9185 23.4399 24.0858 23.7106L20.8215 26.6681C20.5224 26.4406 20.1494 26.305 19.7458 26.305C18.7642 26.3055 17.9652 27.1045 17.9652 28.0862ZM21.5756 31.8607C21.7567 31.8607 21.9038 32.0078 21.9038 32.1888V37.8512H23.4438V28.1064C23.4438 27.9254 23.5909 27.7783 23.7719 27.7783H27.4321C27.6137 27.7783 27.7603 27.9254 27.7603 28.1064V37.8512H29.3003V30.6882C29.3003 30.5072 29.4474 30.3601 29.6284 30.3601H33.2886C33.4696 30.3601 33.6167 30.5072 33.6167 30.6882V37.8512H35.1567V26.0452C35.1567 25.8637 35.3038 25.7171 35.4849 25.7171H39.1451C39.3261 25.7171 39.4732 25.8642 39.4732 26.0452V37.8506H41.3813C41.5628 37.8506 41.7094 37.9977 41.7094 38.1788C41.7094 38.3598 41.5628 38.5069 41.3813 38.5069H15.6781C15.4971 38.5069 15.35 38.3598 15.35 38.1788C15.35 37.9977 15.4971 37.8506 15.6781 37.8506H17.5867V32.1888C17.5867 32.0078 17.7338 31.8607 17.9149 31.8607H21.5756Z" fill="#678FC0"/>
</svg>
