<svg width="56" height="56" viewBox="0 0 56 56" fill="none" xmlns="http://www.w3.org/2000/svg">
<rect width="55.0769" height="55.0769" rx="27.5385" fill="#FEF5E6"/>
<g clip-path="url(#clip0_450_5920)">
<path d="M22.2064 20.6328C23.8892 20.6328 25.2533 19.2687 25.2533 17.5859C25.2533 15.9032 23.8892 14.5391 22.2064 14.5391C20.5237 14.5391 19.1596 15.9032 19.1596 17.5859C19.1596 19.2687 20.5237 20.6328 22.2064 20.6328Z" fill="#B28300"/>
<path d="M32.8705 20.6328C34.5532 20.6328 35.9174 19.2687 35.9174 17.5859C35.9174 15.9032 34.5532 14.5391 32.8705 14.5391C31.1877 14.5391 29.8236 15.9032 29.8236 17.5859C29.8236 19.2687 31.1877 20.6328 32.8705 20.6328Z" fill="#B28300"/>
<path d="M38.2025 26.7266H16.8744V28.6465L24.4916 33.9785V40.5391L30.5853 38.5076V33.9785L38.2025 28.6465V26.7266Z" fill="#B28300"/>
<path d="M17.6361 25.2031H26.7767C26.7767 22.6829 24.7267 20.6328 22.2064 20.6328C19.6862 20.6328 17.6361 22.6829 17.6361 25.2031Z" fill="#B28300"/>
<path d="M28.3002 25.2031H37.4408C37.4408 22.6829 35.3907 20.6328 32.8705 20.6328C30.3503 20.6328 28.3002 22.6829 28.3002 25.2031Z" fill="#B28300"/>
</g>
<defs>
<clipPath id="clip0_450_5920">
<rect width="26" height="26" fill="white" transform="translate(14.5385 14.5391)"/>
</clipPath>
</defs>
</svg>
