<svg width="56" height="56" viewBox="0 0 56 56" fill="none" xmlns="http://www.w3.org/2000/svg">
<rect width="55.0769" height="55.0769" rx="27.5385" fill="#E1F7FD"/>
<g clip-path="url(#clip0_450_5767)">
<path d="M18.9504 22.4252L23.2832 26.7579C24.2667 25.9712 25.4612 25.4599 26.7767 25.3118V19.1797C23.7807 19.3552 21.0603 20.5483 18.9504 22.4252Z" fill="#678FC0"/>
<path d="M17.8733 23.502C15.8376 25.7903 14.5385 28.7935 14.5385 32.09C14.5385 32.511 14.8791 32.8517 15.3002 32.8517H19.9213C20.3423 32.8517 20.683 32.511 20.683 32.09C20.683 30.4745 21.2678 29.0076 22.2061 27.8347L17.8733 23.502Z" fill="#678FC0"/>
<path d="M33.4239 26.135C33.1672 25.9111 32.7953 25.8821 32.5119 26.0658L25.9012 30.2827C25.0182 30.8466 24.4916 31.8069 24.4916 32.8528C24.4916 34.5332 25.858 35.8996 27.5385 35.8996C28.7197 35.8996 29.8043 35.2078 30.3012 34.1374L33.6121 27.0291C33.7549 26.7226 33.6783 26.3581 33.4239 26.135Z" fill="#678FC0"/>
<path d="M37.2036 23.502L34.9647 25.7408C35.2467 26.3426 35.2838 27.0471 34.9927 27.6714L33.9911 29.8217C34.249 30.5301 34.3939 31.2914 34.3939 32.09C34.3939 32.511 34.7346 32.8517 35.1556 32.8517H39.7767C40.1978 32.8517 40.5384 32.511 40.5384 32.09C40.5384 28.7935 39.2393 25.7903 37.2036 23.502Z" fill="#678FC0"/>
<path d="M28.3002 19.1797V25.3118C28.9415 25.384 29.5525 25.5454 30.1259 25.78L31.693 24.7803C32.3208 24.3734 33.088 24.2861 33.887 24.6647L36.1265 22.4252C34.0166 20.5483 31.2963 19.3552 28.3002 19.1797Z" fill="#678FC0"/>
</g>
<defs>
<clipPath id="clip0_450_5767">
<rect width="26" height="26" fill="white" transform="translate(14.5385 14.5391)"/>
</clipPath>
</defs>
</svg>
